<svg width="20" height="22" viewBox="0 0 20 22" fill="none" xmlns="http://www.w3.org/2000/svg">
<path d="M18.1751 3.65885C16.8918 7.01599 13.6751 11.5796 10.9834 13.8439L9.34176 15.2253C9.13343 15.3826 8.9251 15.5225 8.69176 15.6187C8.69176 15.4613 8.68343 15.2865 8.65843 15.1203C8.56676 14.386 8.2501 13.704 7.69176 13.1183C7.1251 12.5238 6.43343 12.1741 5.7251 12.0779C5.55843 12.0692 5.39176 12.0517 5.2251 12.0692C5.31676 11.7982 5.45843 11.5446 5.63343 11.3348L6.93343 9.61253C9.08343 6.78868 13.4501 3.39657 16.6418 2.05896C17.1334 1.86662 17.6084 2.0065 17.9084 2.32998C18.2251 2.65345 18.3751 3.15178 18.1751 3.65885Z" stroke="#0F172A" stroke-width="1.5" stroke-linecap="round" stroke-linejoin="round"/>
<path d="M8.69173 15.6188C8.69173 16.5805 8.34173 17.4984 7.6834 18.1978C7.17507 18.7311 6.4834 19.0983 5.6584 19.212L3.6084 19.448C2.49173 19.5792 1.5334 18.5825 1.66673 17.3935L1.89173 15.2428C2.09173 13.3282 3.61673 12.1043 5.2334 12.0693C5.40007 12.0606 5.57507 12.0693 5.7334 12.078C6.44173 12.1742 7.1334 12.5152 7.70007 13.1184C8.2584 13.7042 8.57507 14.3861 8.66673 15.1204C8.67507 15.2866 8.69173 15.4527 8.69173 15.6188Z" stroke="#0F172A" stroke-width="1.5" stroke-linecap="round" stroke-linejoin="round"/>
<path d="M11.8665 12.8647C11.8665 10.5829 10.0998 8.72949 7.9248 8.72949" stroke="#0F172A" stroke-width="1.5" stroke-linecap="round" stroke-linejoin="round"/>
</svg>
