<svg width="20" height="22" viewBox="0 0 20 22" fill="none" xmlns="http://www.w3.org/2000/svg">
<path d="M6.6665 2.61011V5.23288" stroke="#0F172A" stroke-width="1.5" stroke-miterlimit="10" stroke-linecap="round" stroke-linejoin="round"/>
<path d="M13.3335 2.61011V5.23288" stroke="#0F172A" stroke-width="1.5" stroke-miterlimit="10" stroke-linecap="round" stroke-linejoin="round"/>
<path d="M13.3333 3.92139C16.1083 4.07875 17.5 5.18906 17.5 9.29806V14.701C17.5 18.3029 16.6667 20.1039 12.5 20.1039H7.5C3.33333 20.1039 2.5 18.3029 2.5 14.701V9.29806C2.5 5.18906 3.89167 4.0875 6.66667 3.92139H13.3333Z" stroke="#0F172A" stroke-width="1.5" stroke-miterlimit="10" stroke-linecap="round" stroke-linejoin="round"/>
<path d="M17.2918 16.2485H2.7085" stroke="#0F172A" stroke-width="1.5" stroke-miterlimit="10" stroke-linecap="round" stroke-linejoin="round"/>
<path d="M9.99984 8.07422C8.97484 8.07422 8.10817 8.65997 8.10817 9.7965C8.10817 10.3385 8.34984 10.7494 8.7165 11.0117C8.20817 11.3265 7.9165 11.8335 7.9165 12.428C7.9165 13.5121 8.70817 14.1853 9.99984 14.1853C11.2832 14.1853 12.0832 13.5121 12.0832 12.428C12.0832 11.8335 11.7915 11.3177 11.2748 11.0117C11.6498 10.7407 11.8832 10.3385 11.8832 9.7965C11.8832 8.65997 11.0248 8.07422 9.99984 8.07422ZM9.99984 10.5571C9.5665 10.5571 9.24984 10.2861 9.24984 9.8577C9.24984 9.42057 9.5665 9.16704 9.99984 9.16704C10.4332 9.16704 10.7498 9.42057 10.7498 9.8577C10.7498 10.2861 10.4332 10.5571 9.99984 10.5571ZM9.99984 13.1012C9.44984 13.1012 9.04984 12.8127 9.04984 12.2881C9.04984 11.7636 9.44984 11.4838 9.99984 11.4838C10.5498 11.4838 10.9498 11.7723 10.9498 12.2881C10.9498 12.8127 10.5498 13.1012 9.99984 13.1012Z" fill="#0F172A"/>
</svg>
