<svg width="20" height="22" viewBox="0 0 20 22" fill="none" xmlns="http://www.w3.org/2000/svg">
<path d="M12.9252 3.33569H7.07516C5.00016 3.33569 4.54183 4.41977 4.27516 5.74864L3.3335 10.4784H16.6668L15.7252 5.74864C15.4585 4.41977 15.0002 3.33569 12.9252 3.33569Z" stroke="#0F172A" stroke-width="1.5" stroke-linecap="round" stroke-linejoin="round"/>
<path d="M18.3248 18.1892C18.4164 19.2121 17.6331 20.0951 16.6331 20.0951H15.0664C14.1664 20.0951 14.0414 19.6929 13.8831 19.1946L13.7164 18.6701C13.4831 17.9532 13.3331 17.4723 12.1331 17.4723H7.86645C6.66645 17.4723 6.49145 18.0144 6.28311 18.6701L6.11645 19.1946C5.95811 19.6929 5.83311 20.0951 4.93311 20.0951H3.36645C2.36645 20.0951 1.58311 19.2121 1.67478 18.1892L2.14145 12.865C2.25811 11.5536 2.49978 10.4783 4.68311 10.4783H15.3164C17.4998 10.4783 17.7414 11.5536 17.8581 12.865L18.3248 18.1892Z" stroke="#0F172A" stroke-width="1.5" stroke-linecap="round" stroke-linejoin="round"/>
<path d="M3.33333 7.85571H2.5" stroke="#0F172A" stroke-width="1.5" stroke-linecap="round" stroke-linejoin="round"/>
<path d="M17.4998 7.85571H16.6665" stroke="#0F172A" stroke-width="1.5" stroke-linecap="round" stroke-linejoin="round"/>
<path d="M10 3.48438V5.23289" stroke="#0F172A" stroke-width="1.5" stroke-linecap="round" stroke-linejoin="round"/>
<path d="M8.75 5.23291H11.25" stroke="#0F172A" stroke-width="1.5" stroke-linecap="round" stroke-linejoin="round"/>
<path d="M5 13.9753H7.5" stroke="#0F172A" stroke-width="1.5" stroke-linecap="round" stroke-linejoin="round"/>
<path d="M12.5 13.9753H15" stroke="#0F172A" stroke-width="1.5" stroke-linecap="round" stroke-linejoin="round"/>
</svg>
