<svg width="20" height="22" viewBox="0 0 20 22" fill="none" xmlns="http://www.w3.org/2000/svg">
<rect x="0.75" y="4.50098" width="18.5" height="13.1138" rx="1" stroke="#0F172A" stroke-width="1.2"/>
<mask id="path-2-inside-1_139_2662" fill="white">
<path fill-rule="evenodd" clip-rule="evenodd" d="M10 15.6477C11.7259 15.6477 13.125 13.5928 13.125 11.0579C13.125 8.52296 11.7259 6.46802 10 6.46802C8.27411 6.46802 6.875 8.52296 6.875 11.0579C6.875 13.5928 8.27411 15.6477 10 15.6477ZM11.6302 13.6806V12.7885H10.5684V8.43509H9.89009L8.25012 9.36211V9.39225L8.44761 10.0398H8.48195L9.64109 9.5575V12.7885H8.48195V13.6806H11.6302Z"/>
</mask>
<path fill-rule="evenodd" clip-rule="evenodd" d="M10 15.6477C11.7259 15.6477 13.125 13.5928 13.125 11.0579C13.125 8.52296 11.7259 6.46802 10 6.46802C8.27411 6.46802 6.875 8.52296 6.875 11.0579C6.875 13.5928 8.27411 15.6477 10 15.6477ZM11.6302 13.6806V12.7885H10.5684V8.43509H9.89009L8.25012 9.36211V9.39225L8.44761 10.0398H8.48195L9.64109 9.5575V12.7885H8.48195V13.6806H11.6302Z" fill="#0F172A"/>
<path d="M11.6302 12.7885H12.8302V11.5885H11.6302V12.7885ZM11.6302 13.6806V14.8806H12.8302V13.6806H11.6302ZM10.5684 12.7885H9.3684V13.9885H10.5684V12.7885ZM10.5684 8.43509H11.7684V7.23509H10.5684V8.43509ZM9.89009 8.43509V7.23509H9.5744L9.29958 7.39044L9.89009 8.43509ZM8.25012 9.36211L7.65962 8.31745L7.05012 8.66198V9.36211H8.25012ZM8.25012 9.39225H7.05012V9.57115L7.10231 9.74228L8.25012 9.39225ZM8.44761 10.0398L7.29979 10.3899L7.55899 11.2399H8.44761V10.0398ZM8.48195 10.0398V11.2399H8.72166L8.94298 11.1478L8.48195 10.0398ZM9.64109 9.5575H10.8411V7.7584L9.18006 8.4496L9.64109 9.5575ZM9.64109 12.7885V13.9885H10.8411V12.7885H9.64109ZM8.48195 12.7885V11.5885H7.28195V12.7885H8.48195ZM8.48195 13.6806H7.28195V14.8806H8.48195V13.6806ZM11.925 11.0579C11.925 12.1163 11.6308 13.0214 11.2178 13.628C10.8005 14.2409 10.3486 14.4477 10 14.4477V16.8477C11.3772 16.8477 12.4879 16.027 13.2016 14.9787C13.9196 13.9242 14.325 12.5343 14.325 11.0579H11.925ZM10 7.66802C10.3486 7.66802 10.8005 7.87483 11.2178 8.4877C11.6308 9.09435 11.925 9.99943 11.925 11.0579H14.325C14.325 9.5814 13.9196 8.19155 13.2016 7.137C12.4879 6.08868 11.3772 5.26802 10 5.26802V7.66802ZM8.075 11.0579C8.075 9.99943 8.36917 9.09435 8.78221 8.4877C9.19949 7.87483 9.65135 7.66802 10 7.66802V5.26802C8.62276 5.26802 7.51212 6.08868 6.79837 7.137C6.08038 8.19155 5.675 9.5814 5.675 11.0579H8.075ZM10 14.4477C9.65135 14.4477 9.19949 14.2409 8.78221 13.628C8.36917 13.0214 8.075 12.1163 8.075 11.0579H5.675C5.675 12.5343 6.08038 13.9242 6.79837 14.9787C7.51212 16.027 8.62276 16.8477 10 16.8477V14.4477ZM10.4302 12.7885V13.6806H12.8302V12.7885H10.4302ZM10.5684 13.9885H11.6302V11.5885H10.5684V13.9885ZM9.3684 8.43509V12.7885H11.7684V8.43509H9.3684ZM9.89009 9.63509H10.5684V7.23509H9.89009V9.63509ZM8.84063 10.4068L10.4806 9.47975L9.29958 7.39044L7.65962 8.31745L8.84063 10.4068ZM9.45012 9.39225V9.36211H7.05012V9.39225H9.45012ZM9.59542 9.68983L9.39794 9.04223L7.10231 9.74228L7.29979 10.3899L9.59542 9.68983ZM8.48195 8.83985H8.44761V11.2399H8.48195V8.83985ZM9.18006 8.4496L8.02092 8.93195L8.94298 11.1478L10.1021 10.6654L9.18006 8.4496ZM10.8411 12.7885V9.5575H8.44109V12.7885H10.8411ZM8.48195 13.9885H9.64109V11.5885H8.48195V13.9885ZM9.68195 13.6806V12.7885H7.28195V13.6806H9.68195ZM11.6302 12.4806H8.48195V14.8806H11.6302V12.4806Z" fill="#0F172A" mask="url(#path-2-inside-1_139_2662)"/>
<path d="M2.18825 7.27188C2.11834 7.30226 2.04716 7.32863 1.975 7.35093L1.975 5.75674H3.4495C3.42479 5.85319 3.39411 5.94797 3.35759 6.04045C3.2473 6.3198 3.08634 6.57182 2.88524 6.7828C2.68419 6.99371 2.44708 7.15941 2.18825 7.27188Z" fill="#0F172A" stroke="#0F172A" stroke-width="1.2"/>
<path d="M17.8118 7.27188C17.8817 7.30226 17.9528 7.32863 18.025 7.35093L18.025 5.75674H16.5505C16.5752 5.85319 16.6059 5.94797 16.6424 6.04045C16.7527 6.3198 16.9137 6.57182 17.1148 6.7828C17.3158 6.99371 17.5529 7.15941 17.8118 7.27188Z" fill="#0F172A" stroke="#0F172A" stroke-width="1.2"/>
<path d="M2.18825 14.8441C2.11834 14.8137 2.04716 14.7873 1.975 14.765L1.975 16.3592H3.4495C3.42479 16.2628 3.39411 16.168 3.35759 16.0755C3.2473 15.7962 3.08634 15.5442 2.88524 15.3332C2.68419 15.1223 2.44708 14.9566 2.18825 14.8441Z" fill="#0F172A" stroke="#0F172A" stroke-width="1.2"/>
<path d="M17.8118 14.8441C17.8817 14.8137 17.9528 14.7873 18.025 14.765L18.025 16.3592H16.5505C16.5752 16.2628 16.6059 16.168 16.6424 16.0755C16.7527 15.7962 16.9137 15.5442 17.1148 15.3332C17.3158 15.1223 17.5529 14.9566 17.8118 14.8441Z" fill="#0F172A" stroke="#0F172A" stroke-width="1.2"/>
</svg>
