<svg xmlns="http://www.w3.org/2000/svg" width="16" height="16" viewBox="0 0 16 16" fill="none">
  <path d="M11.3332 14.6667H4.6665C4.39317 14.6667 4.1665 14.4401 4.1665 14.1667C4.1665 13.8934 4.39317 13.6667 4.6665 13.6667H11.3332C11.6065 13.6667 11.8332 13.8934 11.8332 14.1667C11.8332 14.4401 11.6065 14.6667 11.3332 14.6667Z" fill="#4A4A4A"/>
  <path d="M13.5668 3.68011L10.9001 5.58677C10.5468 5.84011 10.0401 5.68677 9.88681 5.28011L8.62681 1.92011C8.41348 1.34011 7.59348 1.34011 7.38015 1.92011L6.11348 5.27344C5.96015 5.68677 5.46015 5.84011 5.10681 5.58011L2.44015 3.67344C1.90681 3.30011 1.20015 3.82677 1.42015 4.44677L4.19348 12.2134C4.28681 12.4801 4.54015 12.6534 4.82015 12.6534H11.1735C11.4535 12.6534 11.7068 12.4734 11.8001 12.2134L14.5735 4.44677C14.8001 3.82677 14.0935 3.30011 13.5668 3.68011ZM9.66681 9.83344H6.33348C6.06015 9.83344 5.83348 9.60677 5.83348 9.33344C5.83348 9.06011 6.06015 8.83344 6.33348 8.83344H9.66681C9.94015 8.83344 10.1668 9.06011 10.1668 9.33344C10.1668 9.60677 9.94015 9.83344 9.66681 9.83344Z" fill="#4A4A4A"/>
</svg>