<svg width="20" height="22" viewBox="0 0 20 22" fill="none" xmlns="http://www.w3.org/2000/svg">
<path d="M2.9165 19.4971V4.63473C2.9165 2.88622 4.03317 2.01196 5.4165 2.01196H12.0832C13.4665 2.01196 14.5832 2.88622 14.5832 4.63473V19.4971H2.9165Z" stroke="#0F172A" stroke-width="1.5" stroke-linecap="round" stroke-linejoin="round"/>
<path d="M1.6665 19.4971H15.8332" stroke="#0F172A" stroke-width="1.5" stroke-linecap="round" stroke-linejoin="round"/>
<path d="M6.9915 9.00599H10.5165C11.3832 9.00599 12.0915 8.56887 12.0915 7.35365V6.27832C12.0915 5.0631 11.3832 4.62598 10.5165 4.62598H6.9915C6.12484 4.62598 5.4165 5.0631 5.4165 6.27832V7.35365C5.4165 8.56887 6.12484 9.00599 6.9915 9.00599Z" stroke="#0F172A" stroke-width="1.5" stroke-linecap="round" stroke-linejoin="round"/>
<path d="M5.4165 11.6287H7.9165" stroke="#0F172A" stroke-width="1.5" stroke-linecap="round" stroke-linejoin="round"/>
<path d="M14.5835 14.2604L18.3335 14.2516V9.00609L16.6668 8.13184" stroke="#0F172A" stroke-width="1.5" stroke-linecap="round" stroke-linejoin="round"/>
</svg>
