<svg width="20" height="22" viewBox="0 0 20 22" fill="none" xmlns="http://www.w3.org/2000/svg">
<path d="M5.84176 16.3035L2.5001 12.7977C1.38343 11.6262 1.38343 10.4634 2.5001 9.29193L8.06676 3.4519L14.1918 9.87772C14.5001 10.2012 14.5001 10.7257 14.1918 11.0492L9.1751 16.3122C8.0751 17.4662 6.95843 17.4662 5.84176 16.3035Z" stroke="#0F172A" stroke-width="1.5" stroke-miterlimit="10" stroke-linecap="round" stroke-linejoin="round"/>
<path d="M6.9585 2.27173L8.07516 3.4432" stroke="#0F172A" stroke-width="1.5" stroke-miterlimit="10" stroke-linecap="round" stroke-linejoin="round"/>
<path d="M1.7251 10.9881L14.3251 10.4111" stroke="#0F172A" stroke-width="1.5" stroke-miterlimit="10" stroke-linecap="round" stroke-linejoin="round"/>
<path d="M2.5 19.8005H13.3333" stroke="#0F172A" stroke-width="1.5" stroke-miterlimit="10" stroke-linecap="round" stroke-linejoin="round"/>
<path d="M15.7082 13.6807C15.7082 13.6807 14.1665 15.4379 14.1665 16.5132C14.1665 17.405 14.8582 18.1306 15.7082 18.1306C16.5582 18.1306 17.2498 17.405 17.2498 16.5132C17.2498 15.4379 15.7082 13.6807 15.7082 13.6807Z" stroke="#0F172A" stroke-width="1.5" stroke-linecap="round" stroke-linejoin="round"/>
</svg>
