<svg width="20" height="20" viewBox="0 0 20 20" fill="none" xmlns="http://www.w3.org/2000/svg">
<path d="M10.0931 1.65125C5.53571 1.65125 1.83691 5.35004 1.83691 9.90748C1.83691 14.4649 5.53571 18.1637 10.0931 18.1637C14.6506 18.1637 18.3494 14.4649 18.3494 9.90748C18.3494 5.35004 14.6506 1.65125 10.0931 1.65125ZM10.3656 14.0356C10.217 14.0851 9.96105 14.0851 9.81244 14.0356C8.52446 13.598 5.63478 11.7569 5.63478 8.63602C5.63478 7.25723 6.74112 6.14264 8.11165 6.14264C8.92076 6.14264 9.63905 6.53068 10.0931 7.14164C10.539 6.53893 11.2655 6.14264 12.0746 6.14264C13.4452 6.14264 14.5515 7.25723 14.5515 8.63602C14.5515 11.7569 11.6618 13.598 10.3656 14.0356Z" fill="#5662F6"/>
</svg>
