<svg width="20" height="22" viewBox="0 0 20 22" fill="none" xmlns="http://www.w3.org/2000/svg">
<path d="M1.72488 4.23598C2.39155 1.21105 6.73322 1.21105 7.39155 4.23598C7.78322 6.01072 6.70822 7.51444 5.77488 8.44989C5.09155 9.13181 4.01655 9.12307 3.33322 8.44989C2.40822 7.51444 1.33322 6.01072 1.72488 4.23598Z" stroke="#0F172A" stroke-width="1.5"/>
<path d="M12.5583 14.7269C13.225 11.702 17.5917 11.702 18.2583 14.7269C18.65 16.5017 17.575 18.0054 16.6333 18.9409C15.95 19.6228 14.8667 19.614 14.1833 18.9409C13.2417 18.0054 12.1667 16.5017 12.5583 14.7269Z" stroke="#0F172A" stroke-width="1.5"/>
<path d="M9.99991 4.58569H12.2332C13.7749 4.58569 14.4916 6.58774 13.3332 7.65433L6.67491 13.7654C5.51658 14.8232 6.23325 16.8253 7.76658 16.8253H9.99991" stroke="#0F172A" stroke-width="1.5" stroke-linecap="round" stroke-linejoin="round"/>
<path d="M4.57209 5.02282H4.58172" stroke="#0F172A" stroke-width="2" stroke-linecap="round" stroke-linejoin="round"/>
<path d="M15.4051 15.5138H15.4147" stroke="#0F172A" stroke-width="2" stroke-linecap="round" stroke-linejoin="round"/>
</svg>
