<svg width="12" height="12" viewBox="0 0 12 12" fill="none" xmlns="http://www.w3.org/2000/svg">
<path d="M4.44001 2.29999C4.04001 0.569986 1.43501 0.564986 1.03501 2.29999C0.800012 3.31499 1.44501 4.17499 2.00501 4.70999C2.41501 5.09499 3.06001 5.09499 3.47001 4.70999C4.03001 4.17499 4.67001 3.31499 4.44001 2.29999ZM2.75501 3.09999C2.48001 3.09999 2.25501 2.87499 2.25501 2.59999C2.25501 2.32499 2.47501 2.09999 2.75001 2.09999H2.75501C3.03501 2.09999 3.25501 2.32499 3.25501 2.59999C3.25501 2.87499 3.03501 3.09999 2.75501 3.09999Z" fill="#71717A"/>
<path d="M10.955 8.29999C10.555 6.56999 7.94 6.56499 7.535 8.29999C7.3 9.31499 7.945 10.175 8.51 10.71C8.92 11.095 9.57 11.095 9.98 10.71C10.545 10.175 11.19 9.31499 10.955 8.29999ZM9.265 9.09999C8.99 9.09999 8.765 8.87499 8.765 8.59999C8.765 8.32499 8.985 8.09999 9.26 8.09999H9.265C9.54 8.09999 9.765 8.32499 9.765 8.59999C9.765 8.87499 9.54 9.09999 9.265 9.09999Z" fill="#71717A"/>
<path d="M5.99973 9.87488H4.65973C4.07973 9.87488 3.57473 9.52488 3.37473 8.98488C3.16973 8.44488 3.31973 7.84988 3.75473 7.46488L7.74973 3.96988C7.98973 3.75988 7.99473 3.47488 7.92473 3.27988C7.84973 3.08488 7.65973 2.87488 7.33973 2.87488H5.99973C5.79473 2.87488 5.62473 2.70488 5.62473 2.49988C5.62473 2.29488 5.79473 2.12488 5.99973 2.12488H7.33973C7.91973 2.12488 8.42473 2.47488 8.62473 3.01488C8.82973 3.55488 8.67973 4.14988 8.24473 4.53488L4.24973 8.02988C4.00973 8.23988 4.00473 8.52488 4.07473 8.71988C4.14973 8.91488 4.33973 9.12488 4.65973 9.12488H5.99973C6.20473 9.12488 6.37473 9.29488 6.37473 9.49988C6.37473 9.70488 6.20473 9.87488 5.99973 9.87488Z" fill="#71717A"/>
</svg>
