<svg width="224" height="15" viewBox="0 0 224 15" fill="none" xmlns="http://www.w3.org/2000/svg">
<path d="M0.943763 0.376226H3.70687L8.6578 5.34459L13.6087 0.376226H16.3718V14H13.6087V4.20274L8.6578 8.97062L3.70687 4.20274V14H0.943763V0.376226ZM35.6721 10.6267L29.7188 0.376226H32.848L37.0406 8.12513L41.1809 0.376226H44.3101L38.4352 10.6093V14H35.6721V10.6267ZM56.8202 7.10531C56.8202 6.13488 57.0033 5.23128 57.3694 4.3945C57.7355 3.55191 58.2643 2.82264 58.9558 2.20668C59.6531 1.5849 60.5015 1.09678 61.501 0.742316C62.5063 0.387848 63.6423 0.210614 64.9091 0.210614C66.019 0.210614 67.0359 0.323928 67.9598 0.550555C68.8896 0.771371 69.7525 1.11131 70.5486 1.57038L69.276 3.66232C69.0378 3.50542 68.7617 3.36596 68.4479 3.24393C68.14 3.1219 67.8087 3.02021 67.4543 2.93886C67.1056 2.85169 66.7424 2.78487 66.3647 2.73838C65.9928 2.69189 65.6238 2.66865 65.2577 2.66865C64.3745 2.66865 63.5871 2.77905 62.8956 2.99987C62.2041 3.21488 61.6201 3.51995 61.1436 3.9151C60.6729 4.30443 60.3126 4.77221 60.0627 5.31844C59.8187 5.85886 59.6967 6.45448 59.6967 7.10531C59.6967 7.77938 59.8245 8.39824 60.0802 8.96191C60.3359 9.52557 60.7049 10.0137 61.1872 10.4263C61.6753 10.833 62.268 11.1526 62.9653 11.3851C63.6684 11.6117 64.4616 11.725 65.3449 11.725C65.7459 11.725 66.1439 11.696 66.5391 11.6378C66.9342 11.5797 67.3148 11.5013 67.6809 11.4025C68.0528 11.2979 68.4102 11.1759 68.753 11.0364C69.0959 10.8911 69.4155 10.7342 69.7118 10.5657L70.9844 12.6577C70.2406 13.1342 69.3806 13.509 68.4044 13.7821C67.4281 14.0494 66.3909 14.183 65.2926 14.183C63.8922 14.183 62.6631 14.0029 61.6056 13.6426C60.548 13.2765 59.6647 12.7768 58.9558 12.1434C58.2468 11.5042 57.7122 10.7546 57.3519 9.89456C56.9975 9.02873 56.8202 8.09898 56.8202 7.10531ZM89.9273 0.376226H92.856L99.4457 14H96.5431L95.4535 11.7076H87.4954L86.4407 14H83.5295L89.9273 0.376226ZM94.364 9.43259L91.4178 3.24393L88.5501 9.43259H94.364ZM112.81 0.376226H119.74C120.786 0.376226 121.692 0.486634 122.459 0.707451C123.226 0.922456 123.862 1.23625 124.368 1.64882C124.874 2.0614 125.248 2.56405 125.492 3.15677C125.742 3.74948 125.867 4.42065 125.867 5.17026C125.867 5.67581 125.806 6.15812 125.684 6.61719C125.562 7.07044 125.373 7.48883 125.118 7.87235C124.868 8.25588 124.551 8.59872 124.168 8.90089C123.784 9.19725 123.334 9.44421 122.816 9.64179L125.78 14H122.398L119.835 10.1299H119.757L115.573 10.1212V14H112.81V0.376226ZM119.809 7.73289C120.332 7.73289 120.788 7.67187 121.178 7.54984C121.573 7.42781 121.901 7.25639 122.163 7.03558C122.43 6.81476 122.628 6.54746 122.755 6.23366C122.889 5.91406 122.956 5.55959 122.956 5.17026C122.956 4.40903 122.694 3.82212 122.171 3.40954C121.648 2.99115 120.861 2.78196 119.809 2.78196H115.573V7.73289H119.809ZM139.746 4.91748H147.87V6.53293H141.588V8.90961H146.922V10.4263H141.588V14H139.746V4.91748ZM156.611 9.43259C156.611 8.7469 156.737 8.11932 156.988 7.54984C157.24 6.98037 157.593 6.49225 158.046 6.08548C158.503 5.67484 159.049 5.35718 159.685 5.13249C160.324 4.9078 161.031 4.79545 161.806 4.79545C162.577 4.79545 163.282 4.9078 163.921 5.13249C164.56 5.35718 165.106 5.67484 165.56 6.08548C166.017 6.49225 166.371 6.98037 166.623 7.54984C166.875 8.11932 167.001 8.7469 167.001 9.43259C167.001 10.1222 166.875 10.7556 166.623 11.3328C166.371 11.9061 166.017 12.4001 165.56 12.8146C165.106 13.2291 164.56 13.5526 163.921 13.785C163.282 14.0136 162.577 14.1278 161.806 14.1278C161.031 14.1278 160.324 14.0136 159.685 13.785C159.049 13.5526 158.503 13.2291 158.046 12.8146C157.593 12.4001 157.24 11.9061 156.988 11.3328C156.737 10.7556 156.611 10.1222 156.611 9.43259ZM158.453 9.43259C158.453 9.90134 158.536 10.3236 158.703 10.6994C158.873 11.0752 159.107 11.3967 159.406 11.664C159.708 11.9274 160.062 12.1308 160.469 12.2741C160.88 12.4175 161.325 12.4892 161.806 12.4892C162.286 12.4892 162.73 12.4175 163.136 12.2741C163.547 12.1308 163.901 11.9274 164.2 11.664C164.498 11.3967 164.732 11.0752 164.903 10.6994C165.073 10.3236 165.159 9.90134 165.159 9.43259C165.159 8.96384 165.073 8.54352 164.903 8.17162C164.732 7.79972 164.498 7.48592 164.2 7.23024C163.901 6.97069 163.547 6.77311 163.136 6.63753C162.73 6.50194 162.286 6.43414 161.806 6.43414C161.325 6.43414 160.88 6.50194 160.469 6.63753C160.062 6.77311 159.708 6.97069 159.406 7.23024C159.107 7.48592 158.873 7.79972 158.703 8.17162C158.536 8.54352 158.453 8.96384 158.453 9.43259ZM176.544 4.91748H181.163C181.861 4.91748 182.465 4.99109 182.976 5.1383C183.488 5.28164 183.912 5.49083 184.249 5.76588C184.586 6.04093 184.836 6.37603 184.999 6.77118C185.165 7.16632 185.248 7.61376 185.248 8.11351C185.248 8.45054 185.208 8.77208 185.126 9.07812C185.045 9.38029 184.919 9.65922 184.749 9.9149C184.582 10.1706 184.371 10.3991 184.115 10.6006C183.86 10.7982 183.559 10.9628 183.215 11.0945L185.19 14H182.936L181.227 11.4199H181.175L178.386 11.4141V14H176.544V4.91748ZM181.21 9.82193C181.558 9.82193 181.863 9.78125 182.122 9.6999C182.386 9.61854 182.604 9.50426 182.779 9.35705C182.957 9.20984 183.089 9.03164 183.174 8.82244C183.263 8.60937 183.308 8.37306 183.308 8.11351C183.308 7.60602 183.133 7.21475 182.785 6.93969C182.436 6.66077 181.911 6.52131 181.21 6.52131H178.386V9.82193H181.21ZM194.937 4.91748H196.779L200.079 8.22973L203.38 4.91748H205.222V14H203.38V7.46849L200.079 10.6471L196.779 7.46849V14H194.937V4.91748ZM215.305 4.91748H223.04V6.53293H217.148V8.34594H222.366V9.8626H217.148V12.3904H223.162V14H215.305V4.91748Z" fill="black"/>
</svg>
