<svg width="72" height="72" viewBox="0 0 72 72" fill="none" xmlns="http://www.w3.org/2000/svg">
<path d="M61.2038 36.687C61.2038 50.5996 49.9105 61.8837 36.0005 61.8837C22.082 61.8837 10.7976 50.5996 10.7976 36.687C10.7976 22.766 22.082 11.4837 36.0005 11.4837C49.9105 11.4837 61.2038 22.766 61.2038 36.687Z" fill="#E83E44"/>
<path fill-rule="evenodd" clip-rule="evenodd" d="M41.278 15.328C41.5098 15.4057 42.3077 15.7575 42.7972 17.4348C42.9516 18.1362 42.2347 17.9285 42.2347 17.9285C40.5657 17.2308 38.7079 17.0058 36.8802 17.272C34.4817 17.6321 32.4912 18.7907 31.2768 20.5411C30.0667 22.2621 29.6721 24.4864 30.1485 26.8056C31.2638 32.1605 35.7603 34.8911 41.6084 33.7669C43.8869 33.3186 45.7103 32.3536 46.9075 30.9675C46.9419 30.9247 47.1262 30.7228 47.302 30.7228C47.5426 30.7228 47.6928 30.8261 47.7869 31.169C48.1344 32.5828 48.0958 33.0311 48.0958 33.0311C48.0958 33.5869 47.9585 34.3785 47.242 35.0006C45.6377 36.3846 43.5649 37.3605 41.0552 37.9054C36.8072 38.7978 32.8341 38.1845 29.848 36.1722C27.2996 34.4516 25.6604 31.8213 25.0853 28.5732C24.5191 25.3381 25.257 22.1395 27.1665 19.576C28.9858 17.1385 31.7272 15.4741 34.8981 14.8902C37.0087 14.5217 39.1847 14.6589 41.278 15.328ZM15.0455 34.4322C15.0455 34.4322 14.9985 33.8936 14.9985 33.8764C14.9724 33.5717 15.1785 33.4042 15.1785 33.4042C17.8474 30.8969 19.1214 28.5689 19.0529 26.2909C19.0487 25.8703 18.9673 25.3338 18.6328 25.1924C18.2289 25.0249 17.4826 25.4111 16.6888 26.1834L16.5256 26.3614L15.0627 27.9208C14.8138 28.2386 14.6677 28.629 14.6207 28.9509C14.1787 33.2371 14.5821 37.8281 15.7662 42.1982C15.8392 42.3867 15.8695 42.4555 15.9765 42.5113C16.084 42.5626 16.1822 42.5202 16.1822 42.5202L17.9246 41.6659L17.9716 41.6445C19.3317 41.0208 21.5115 39.4886 20.8592 36.3094C20.5418 34.7928 19.9323 33.868 19.0357 33.5566C17.8902 33.162 16.4655 33.868 15.5261 34.6576C15.4275 34.7411 15.3158 34.7625 15.2172 34.7172C15.1055 34.6744 15.0371 34.5564 15.0455 34.4322ZM20.4218 30.2383C21.3272 30.1074 22.2234 30.2421 23.0176 30.7164C23.8584 31.2118 24.9485 32.2591 25.4245 34.4515C25.6432 35.4467 25.5832 36.5797 25.5273 37.1632C25.4631 37.9141 25.3389 38.5748 25.1584 39.1797C24.8108 40.3512 24.1329 41.3805 23.2102 42.168C22.5215 42.7465 21.815 43.034 21.0633 43.34L21.0439 43.3479L19.9882 43.8113L19.1214 44.1933L18.2289 44.5925L17.9977 44.708L17.9914 44.7112C17.1262 45.157 16.1503 45.6598 15.1227 45.2406C14.1531 44.8498 13.7497 43.7937 13.6254 43.3563C12.5483 39.6129 12.2352 35.3909 12.7242 31.1606C13.0159 28.6718 14.5951 26.2821 15.0111 25.7758L16.5125 24.0939C19.0139 21.5367 20.5888 21.3738 21.4472 21.6953C22.3052 22.0001 22.8589 22.9013 22.9445 24.1023C22.9659 24.2828 22.9706 24.4586 22.9706 24.6345C22.9706 26.5654 22.0731 28.4787 20.4218 30.2383Z" fill="white"/>
</svg>
