<svg width="72" height="72" viewBox="0 0 72 72" fill="none" xmlns="http://www.w3.org/2000/svg">
<path fill-rule="evenodd" clip-rule="evenodd" d="M69.0481 33.075C69.0481 31.0958 67.4466 29.4857 65.479 29.4857H6.52243C4.55368 29.4857 2.9533 31.0958 2.9533 33.075L2.95215 42.9497H4.14124V33.075C4.14124 31.7523 5.20732 30.6829 6.52243 30.6829H65.479C66.7941 30.6829 67.859 31.7523 67.859 33.075V42.9497H69.0481V33.075ZM16.2328 35.8626C16.2328 35.7521 16.1731 35.6999 16.0886 35.6999H15.2399C15.1375 35.6999 15.0957 35.7521 15.0957 35.8626V39.5901C15.0957 40.0425 15.435 40.5718 16.0886 40.5718H16.0886C16.1641 40.5718 16.2566 40.5718 16.3332 40.5555L17.9627 40.0945C18.0562 40.0697 18.1148 40.1117 18.1148 40.2143V42.6199C18.1148 42.7137 18.1577 42.7729 18.2579 42.7729H18.3696C18.4552 42.7729 18.5307 42.7232 18.5815 42.6359L19.1585 41.6888C19.2171 41.5614 19.2598 41.4332 19.2598 41.2972V35.8626C19.2598 35.7521 19.2 35.6999 19.1077 35.6999H18.2579C18.1577 35.6999 18.1148 35.7521 18.1148 35.8626V39.4633C18.1148 39.5652 18.0472 39.6158 17.9459 39.6158H16.3939C16.2735 39.6158 16.2328 39.5652 16.2328 39.4633V35.8626ZM62.8146 33.79C62.8146 33.6953 62.7728 33.6261 62.6703 33.6261H61.8048C61.7203 33.6261 61.6785 33.6953 61.6785 33.79V35.5542C61.6785 35.658 61.6278 35.7 61.5174 35.7H60.7364C60.5155 35.7 60.3295 35.752 60.1423 35.87L59.2443 36.3995C58.8364 36.6209 58.6412 36.9708 58.6412 37.432V39.5835C58.6412 40.1712 59.1836 40.5807 59.626 40.5626C59.7096 40.5626 59.7862 40.5626 59.8799 40.5366L61.5174 40.0946C61.6278 40.06 61.6785 40.1037 61.6785 40.2142V40.3507C61.6785 40.4517 61.7203 40.4862 61.8048 40.4862H62.6703C62.7728 40.4862 62.8146 40.4517 62.8146 40.3593V33.79ZM54.2122 35.8625C54.2122 35.752 54.1614 35.7 54.0691 35.7H52.1239C51.9132 35.7 51.7272 35.752 51.5402 35.87L50.6329 36.3995C50.235 36.6209 50.0391 36.9708 50.0391 37.432V39.5835C50.0391 40.129 50.4887 40.5626 51.0239 40.5626C51.1075 40.5626 51.1841 40.5626 51.2764 40.5366L52.9061 40.0946C53.0164 40.06 53.0762 40.1037 53.0762 40.2142V40.3507C53.0762 40.4517 53.1101 40.4862 53.2025 40.4862H54.0691C54.1614 40.4862 54.2122 40.4517 54.2122 40.3593V35.8625ZM40.143 35.8625C40.143 35.752 40.0922 35.7 39.9987 35.7H38.0558C37.8428 35.7 37.6568 35.752 37.4721 35.87L36.5625 36.3995C36.1649 36.6209 35.9698 36.9708 35.9698 37.432V39.5835C35.9698 40.129 36.4194 40.5626 36.9538 40.5626C37.0382 40.5626 37.1149 40.5626 37.2083 40.5366L38.8369 40.0946C38.946 40.06 39.007 40.1037 39.007 40.2142V40.3507C39.007 40.4517 39.0397 40.4862 39.1321 40.4862H39.9987C40.0922 40.4862 40.143 40.4517 40.143 40.3593V35.8625ZM21.5343 35.8626C21.5343 35.7521 21.4757 35.6999 21.399 35.6999H20.5411C20.4387 35.6999 20.3969 35.7521 20.3969 35.8626V39.5833C20.3969 40.1365 20.8536 40.5627 21.372 40.5627C21.4563 40.5627 21.5502 40.5627 21.6358 40.5367L23.2653 40.0945C23.3578 40.0601 23.4255 40.1038 23.4255 40.2143V40.3507C23.4255 40.4515 23.4592 40.4863 23.5605 40.4863H24.4103C24.5026 40.4863 24.5624 40.4515 24.5624 40.3593V35.8626C24.5624 35.7521 24.5026 35.6999 24.4103 35.6999H23.5605C23.4592 35.6999 23.4255 35.7521 23.4255 35.8626V39.4633C23.4255 39.5652 23.3578 39.6084 23.2563 39.6084H21.7035C21.5848 39.6084 21.5343 39.5652 21.5343 39.4633V35.8626ZM35.0029 33.79C35.0029 33.6953 34.9611 33.6261 34.8586 33.6261H33.9931C33.9098 33.6261 33.8669 33.6953 33.8669 33.79V35.5542C33.8669 35.658 33.8159 35.7 33.7056 35.7H32.9245C32.7048 35.7 32.5176 35.752 32.3307 35.87L31.4324 36.3995C31.0246 36.6209 30.8307 36.9708 30.8307 37.432V39.5835C30.8307 40.1712 31.3717 40.5807 31.8134 40.5626C31.8991 40.5626 31.9757 40.5626 32.068 40.5366L33.7056 40.0946C33.8159 40.06 33.8669 40.1037 33.8669 40.2142V40.3507C33.8669 40.4517 33.9098 40.4862 33.9931 40.4862H34.8586C34.9611 40.4862 35.0029 40.4517 35.0029 40.3593V33.79ZM10.1169 34.3614C10.1169 34.2667 10.056 34.2163 9.96343 34.2163H9.06423C8.9786 34.2163 8.94559 34.2667 8.94559 34.3614V40.3594C8.94559 40.4515 8.9786 40.4863 9.06423 40.4863H9.96343C10.056 40.4863 10.1169 40.4515 10.1169 40.3508V37.9356C10.1169 37.8253 10.1753 37.7652 10.2769 37.7652H12.5927C12.7021 37.7652 12.7799 37.8253 12.7799 37.9356V40.3508C12.7799 40.4515 12.8136 40.4863 12.9152 40.4863H13.7975C13.8988 40.4863 13.9598 40.4515 13.9598 40.3594V34.3614C13.9598 34.2667 13.8988 34.2163 13.7975 34.2163H12.9152C12.8136 34.2163 12.7799 34.2667 12.7799 34.3614V36.6809C12.7799 36.7916 12.7021 36.8441 12.5927 36.8441H10.2769C10.1753 36.8441 10.1169 36.7916 10.1169 36.6809V34.3614ZM29.8637 36.6209C29.8637 36.0928 29.4309 35.6234 28.8719 35.6234C28.8098 35.6234 28.7534 35.6365 28.6954 35.65C28.6724 35.6553 28.6492 35.6607 28.6252 35.6654L27.0057 36.1097C26.8771 36.1443 26.8356 36.1 26.8356 36.0076V35.8625C26.8356 35.752 26.7746 35.7 26.7003 35.7H25.8415C25.7413 35.7 25.6996 35.752 25.6996 35.8625V40.3592C25.6996 40.4516 25.7413 40.4862 25.8415 40.4862H26.7003C26.7746 40.4862 26.8356 40.4516 26.8356 40.3507V36.7502C26.8356 36.639 26.8864 36.5789 27.0057 36.5789H28.5576C28.6589 36.5789 28.7277 36.639 28.7277 36.7502V40.3507C28.7277 40.4516 28.7616 40.4862 28.8629 40.4862H29.7116C29.8028 40.4862 29.8637 40.4516 29.8637 40.3592V36.6209ZM42.4172 35.8626C42.4172 35.7521 42.3562 35.6999 42.2729 35.6999H41.4231C41.3128 35.6999 41.2788 35.7521 41.2788 35.8626V40.3594C41.2788 40.4515 41.3128 40.4863 41.4231 40.4863H42.2729C42.3562 40.4863 42.4172 40.4515 42.4172 40.3594V35.8626ZM49.2479 34.3704C49.2479 34.2666 49.1971 34.2162 49.097 34.2162H46.9927C46.7977 34.2162 46.5858 34.2666 46.4067 34.3771L45.415 34.9326C44.9979 35.1792 44.795 35.5476 44.795 36.0241V39.2585C44.795 40.0515 45.4307 40.4863 46.0349 40.4863H47.8663C48.0701 40.4863 48.273 40.4443 48.4692 40.3322L49.1971 39.9245C49.2908 39.8728 49.3347 39.7955 49.3347 39.7028C49.3347 39.6158 49.2749 39.5735 49.1814 39.5735H46.1522C46.0506 39.5735 46.0077 39.5234 46.0077 39.4127V35.2987C46.0077 35.1875 46.0506 35.1281 46.1522 35.1281H49.097C49.1971 35.1281 49.2479 35.0868 49.2479 34.9921V34.3704ZM58.4721 35.7935C58.4721 35.6999 58.4112 35.6488 58.3188 35.6488H57.8185C57.5976 35.6488 57.4104 35.6999 57.2313 35.7935L56.7399 36.1187C56.7062 36.1347 56.6723 36.1347 56.6476 36.1347C56.5371 36.1347 56.4944 36.0927 56.4944 35.9991V35.8626C56.4944 35.7521 56.4267 35.6999 56.342 35.6999H55.4858C55.383 35.6999 55.3493 35.7521 55.3493 35.8626V40.3594C55.3493 40.4515 55.383 40.4864 55.4858 40.4864H56.342C56.4267 40.4864 56.4944 40.4515 56.4944 40.3508V36.7501C56.4944 36.6391 56.5371 36.579 56.6476 36.579H58.3188C58.4112 36.579 58.4721 36.5358 58.4721 36.4509V35.7935ZM31.9667 36.7588C31.9667 36.639 32.0094 36.5789 32.129 36.5789H33.6979C33.8159 36.5789 33.8669 36.639 33.8669 36.7588V39.4632C33.8669 39.5651 33.8159 39.6083 33.6979 39.6083H32.129C32.0094 39.6083 31.9667 39.5651 31.9667 39.4632V36.7588ZM37.1059 36.7588C37.1059 36.639 37.1486 36.5789 37.267 36.5789H38.8369C38.946 36.5789 39.007 36.639 39.007 36.7588V39.4632C39.007 39.5651 38.946 39.6083 38.8369 39.6083H37.267C37.1486 39.6083 37.1059 39.5651 37.1059 39.4632V36.7588ZM51.1751 36.7588C51.1751 36.639 51.2178 36.5789 51.3373 36.5789H52.9061C53.0164 36.5789 53.0762 36.639 53.0762 36.7588V39.4632C53.0762 39.5651 53.0164 39.6083 52.9061 39.6083H51.3373C51.2178 39.6083 51.1751 39.5651 51.1751 39.4632V36.7588ZM59.7772 36.7588C59.7772 36.639 59.8213 36.5789 59.9394 36.5789H61.5084C61.6278 36.5789 61.6785 36.639 61.6785 36.7588V39.4632C61.6785 39.5651 61.6278 39.6083 61.5084 39.6083H59.9394C59.8213 39.6083 59.7772 39.5651 59.7772 39.4632V36.7588ZM42.4172 33.7901C42.4172 33.6954 42.3562 33.6262 42.2729 33.6262H41.4231C41.3128 33.6262 41.2788 33.6954 41.2788 33.7901V34.4881C41.2788 34.5914 41.3128 34.626 41.4231 34.626H42.2729C42.3562 34.626 42.4172 34.5914 42.4172 34.4881V33.7901Z" fill="black"/>
</svg>
