<svg width="72" height="72" viewBox="0 0 72 72" fill="none" xmlns="http://www.w3.org/2000/svg">
<path fill-rule="evenodd" clip-rule="evenodd" d="M25.2249 55.9173C30.7805 61.4753 39.8623 61.4753 45.4187 55.9173L55.6797 45.6604C61.2361 40.104 61.2361 31.0155 55.6797 25.46L45.4187 15.2031C39.8623 9.64672 30.7805 9.64672 25.2249 15.2031L14.9663 25.46C9.41161 31.0155 9.41161 40.104 14.9663 45.6604L25.2249 55.9173ZM34.7575 22.624C33.9251 22.624 33.2564 22.8864 32.7198 23.423C31.5539 24.5764 30.9438 26.9643 30.9989 30.1412C31.0658 34.0577 31.9952 41.7454 35.0768 45.7012C35.5791 46.3398 36.1115 46.8521 36.669 47.2232C37.2106 47.5859 37.8282 47.9311 38.776 47.9311C39.0335 47.9311 39.3093 47.9077 39.5968 47.8567C41.3645 47.4271 43.5811 45.463 45.2217 42.847C45.4708 42.4491 45.9079 42.2059 46.3793 42.2059C46.6334 42.2059 46.8858 42.2828 47.1014 42.4165C47.4082 42.6104 47.6196 42.9121 47.7024 43.2682C47.7843 43.6217 47.7199 43.9895 47.5285 44.2946C45.4482 47.6051 42.6993 49.927 40.1785 50.5146L40.1665 50.5167L40.1665 50.5167C40.1535 50.5188 40.1354 50.5218 40.1133 50.5279C39.6528 50.6107 39.1956 50.6525 38.7635 50.6525C37.1379 50.6525 35.992 50.0365 35.1754 49.4957C34.3689 48.9583 33.6108 48.2479 32.9296 47.3728C28.5893 41.8047 28.2993 31.3581 28.2751 30.1871C28.2316 27.4114 28.6294 23.6462 30.8 21.4882C31.8573 20.4401 33.1871 19.9077 34.7441 19.9077H34.9982C36.5578 19.9077 37.8876 20.4401 38.9465 21.4882C41.1129 23.6462 41.5158 27.4114 41.4673 30.1871C41.4239 33.0798 40.8906 38.6897 37.8876 43.7187C37.6444 44.1282 37.1981 44.3823 36.7183 44.3823C36.4768 44.3823 36.2319 44.3146 36.0246 44.1943C35.3819 43.8073 35.1662 42.9648 35.5524 42.3229C37.6519 38.8067 38.6707 34.9378 38.7485 30.1412C38.8003 26.9601 38.1876 24.5764 37.0317 23.423C36.4935 22.8864 35.8232 22.624 34.9941 22.624H34.7575ZM29.2374 50.6305C28.4184 50.6305 27.7522 49.9945 27.7196 49.1779C27.7038 48.7742 27.8442 48.3872 28.1208 48.088C28.3941 47.7921 28.7727 47.6191 29.1756 47.5982C30.008 47.5589 30.721 48.215 30.7527 49.0508C30.7878 49.8916 30.1351 50.5979 29.301 50.6305H29.2374Z" fill="#E60013"/>
</svg>
