<svg width="72" height="72" viewBox="0 0 72 72" fill="none" xmlns="http://www.w3.org/2000/svg">
<path d="M16.4098 36.866L17.4837 35.441C16.6864 35.066 15.8729 34.4961 15.2749 33.7308C14.6764 32.9961 14.2778 32.0961 14.2778 31.0308V29.8007H12.2834V31.0609C12.2834 32.141 11.8999 33.1007 11.2863 33.9257C10.6726 34.766 9.85909 35.4257 9.00024 35.9058L10.1967 37.2711C10.8871 36.866 11.5617 36.3558 12.1143 35.7711C12.6519 35.216 13.0807 34.6007 13.3416 34.016C13.9709 35.1558 14.9373 36.0859 16.4098 36.866ZM20.3374 34.2103H22.5619V32.6359H20.3368V29.4859H18.4343V37.4058H20.3368L20.3374 34.2103ZM12.2834 43.691H20.3368V37.9461H12.2834V43.691ZM18.4349 39.5211V42.1314H14.1703V39.5211H18.4349ZM30.4008 37.1058L31.4747 35.6507C30.6617 35.2461 29.8488 34.7058 29.2811 33.9859C28.6831 33.2808 28.3147 32.4109 28.3147 31.2859V29.8007H26.2896V31.3166C26.2896 32.3365 25.9369 33.2365 25.3691 34.0166C24.8014 34.8115 23.9576 35.5013 23.0221 36.1013L24.2029 37.4967C24.9397 37.0615 25.5992 36.4916 26.1513 35.9365C26.6888 35.3814 27.1025 34.7967 27.3326 34.2564C27.5779 34.7365 27.9922 35.2615 28.5291 35.7564C29.0666 36.282 29.7256 36.7467 30.4008 37.1064V37.1058ZM33.0396 37.4808H34.9421V29.4859H33.0396V31.9757H30.3549V33.6257H33.0396V37.4808ZM34.7114 40.6007C34.7114 39.641 34.3128 38.8308 33.6532 38.2461C32.978 37.6609 32.0424 37.316 30.9378 37.316C29.8331 37.316 28.9126 37.6609 28.2531 38.2461C27.5779 38.8308 27.1943 39.641 27.1943 40.6007C27.1943 41.6058 27.5779 42.416 28.2531 43.0007C28.9126 43.5558 29.8331 43.8859 30.9378 43.8859C32.0424 43.8859 32.978 43.5558 33.6532 43.0007C34.3128 42.416 34.7114 41.6058 34.7114 40.6007ZM32.8403 40.6007C32.8403 41.6359 32.0424 42.3257 30.9378 42.3257C29.8331 42.3257 29.066 41.6359 29.066 40.6013C29.066 39.5808 29.8331 38.891 30.9378 38.891C31.4898 38.891 31.95 39.0711 32.3027 39.3711C32.4729 39.5297 32.6083 39.7205 32.7008 39.9319C32.7932 40.1432 32.8406 40.3708 32.8403 40.6007ZM36.9974 37.9013L38.0864 39.3558C39.9738 38.4558 41.5381 37.3461 42.6428 35.8609C43.7474 34.4058 44.3762 32.5609 44.4227 30.2211H38.0562V31.7961H42.4893C42.4427 32.2845 42.3451 32.7669 42.1982 33.2359L37.4727 33.416L37.7953 35.0507L41.4004 34.766C41.2162 35.0359 40.9861 35.2757 40.7559 35.516C39.7896 36.4904 38.485 37.2404 36.9974 37.9007V37.9013ZM47.6443 35.066H49.8687V33.5058H47.6443V29.4859H45.7266V42.0705H47.6443V35.066ZM61.1443 36.6109V35.0359H54.3327V31.691H61.067V30.1308H52.4301V36.6109H61.1443ZM50.4509 40.616H62.9997V39.0705H50.4515L50.4509 40.616Z" fill="#003CDC"/>
</svg>
